<svg id="Слой_1" height="512" viewBox="0 0 512 512" width="512" xmlns="http://www.w3.org/2000/svg" data-name="Слой 1"><path d="m441 418.88c-68 20.54-89.83-56.46-74.43-93.67a49 49 0 0 1 -6.14-29.49 43.19 43.19 0 0 1 7.43-19.27 57.54 57.54 0 0 1 -12.35-5.89c-11.38-7-26.62-21.14-27.43-46.72-1.28-41.07 38.5-80.85 89.83-59 0 0 64.16 28.24 82.12 82.13s8.97 151.39-59.03 171.91z" fill="#f55555"/><path d="m419.27 426.29a54.26 54.26 0 0 1 -41.43-18.36c-20.55-22.69-24-59.83-15.65-82.41a53 53 0 0 1 -5.7-30.28 46.48 46.48 0 0 1 5.5-16.82 69.55 69.55 0 0 1 -8.59-4.51 63.85 63.85 0 0 1 -17.61-15.8 3.94 3.94 0 0 1 6.28-4.75 56 56 0 0 0 15.46 13.85 55.12 55.12 0 0 0 11.47 5.47 3.94 3.94 0 0 1 2.11 6 39.45 39.45 0 0 0 -6.77 17.54c-1.85 14.82 5.5 26.79 5.57 26.91a4 4 0 0 1 .3 3.6c-8.33 20.14-5.54 54.9 13.5 75.92 13.69 15.12 33.11 19.43 56.16 12.47 20.93-6.32 37.26-20.56 48.54-42.35 20.66-39.88 18.57-92.54 7.88-124.58-5.22-15.68-15.09-30.72-29.33-44.7a3.94 3.94 0 0 1 5.52-5.62c15.14 14.86 25.66 31 31.28 47.83 11.19 33.57 13.35 88.79-8.36 130.7-12.3 23.74-30.22 39.31-53.26 46.26a79 79 0 0 1 -22.87 3.63z"/><path d="m345.84 134.57c22.32-9.19 22.47 9.19 32.9 8.53 9.36-.59 14.37-29.46 27.49-37.74-3.81-3.51-10.14-5.34-20.43-3.44 0 0 0-15.4-23.1-18s-18 20.53-18 20.53-16.68 1.28-25.66 23.1q-.41 1-.76 2c7.53 5.39 17.26 9.26 27.56 5.02z" fill="#f55555"/><path d="m439.69 158.39s3.85-29.51-29.51-26.95c0 0 5.07-17.76-4-26.08-13.11 8.28-18.13 37.15-27.49 37.74-10.42.66-10.58-17.72-32.9-8.53-10.3 4.24-20 .37-27.53-5-7.38 20.4 5.89 28.84 5.89 28.84a30.54 30.54 0 0 0 -15.4 19.25c-3.85 14.12 9 26.95 9 26.95s-11.75 27.39 12.12 32.3c0 0 8.44-5.37 14.86-23.34s21.81-34.65 44.91-38.5 57.45 24.25 80.05 25.6c0 0 9.78-43.56-30-42.28z" fill="#ffd95f"/><path d="m329.87 240.85a3.94 3.94 0 0 1 -.79-.08c-7.43-1.52-12.68-5.14-15.61-10.74-4.58-8.76-1.81-19.77-.2-24.58-3.71-4.45-11.78-16-8.27-28.84a34.86 34.86 0 0 1 12.78-18.85c-4.5-5.55-8.23-15.55-3.17-29.55a3.94 3.94 0 0 1 6-1.86c8.42 6.05 16.41 7.59 23.73 4.58 16.41-6.76 23.45.07 28.11 4.59 2.57 2.49 4 3.79 6 3.65 2.39-.15 6.39-8.35 9-13.78 4.26-8.73 9.09-18.62 16.59-23.36a3.94 3.94 0 0 1 4.77.43c7.42 6.83 7.1 18.25 6.13 24.88 9.25.16 16.47 2.91 21.49 8.2 5.8 6.11 7.07 14.05 7.23 18.92 10.18.46 18 4 23.38 10.41 11.38 13.76 6.62 35.71 6.41 36.64a3.94 3.94 0 0 1 -4.08 3.07c-10.69-.58-23.15-6.58-36.37-12.8-15.26-7.26-31.07-14.78-42.71-12.78-19.32 3.22-35 16.65-41.85 35.94-6.79 19-16.06 25.09-16.45 25.34a3.93 3.93 0 0 1 -2.12.57zm-9.25-105.15c-2.84 13.49 5.33 19.13 5.72 19.39a4 4 0 0 1 -.55 6.9 26.44 26.44 0 0 0 -13.2 16.69c-3.21 11.77 7.86 23 8 23.13a3.94 3.94 0 0 1 .84 4.34c0 .12-5.12 12.29-.94 20.25 1.59 3 4.36 5.08 8.45 6.24 2.32-2.12 7.7-8 12.11-20.38 7.86-22 25.8-37.36 48-41.06 14.08-2.35 31 5.7 47.42 13.48 10.94 5.19 21.35 10.14 30 11.65.73-6 1.23-18.47-5.37-26.42-4.42-5.33-11.55-7.88-21.22-7.56a3.94 3.94 0 0 1 -4-4.43c0-.21 1.17-10.47-5-17-4.21-4.4-11-6.28-20.28-5.57a3.94 3.94 0 0 1 -4.09-5c1-3.7 2.56-13.36-.79-19.46-4.32 4.28-7.83 11.47-11 17.94-4.72 9.54-8.77 17.77-15.72 18.17-5.61.35-9.16-3.09-12-5.86-4.29-4.16-8-7.75-19.63-3-8.48 3.55-17.63 2.67-26.75-2.44z"/><path d="m378.19 147.06c-5.16 0-8.51-3.25-11.23-5.89-4.29-4.16-8-7.75-19.63-3-9.87 4.06-20.7 2.17-31.33-5.46a3.94 3.94 0 0 1 -1.41-4.54q.38-1 .82-2.12c7.12-17.29 18.8-22.9 25-24.7-.27-4.26.16-11.08 4.56-16 4-4.45 10.12-6.25 18.19-5.36 18.21 2 24 11.65 25.77 17.44 8.65-1 15.36.72 20 5a3.94 3.94 0 0 1 -.57 6.23c-5.61 3.54-9.92 12.37-13.72 20.15-4.64 9.56-8.69 17.79-15.64 18.19zm-21.35-19c7.95 0 12.36 4.28 15.61 7.43 2.57 2.49 4 3.79 6 3.65 2.39-.15 6.39-8.35 9-13.78 3.3-6.77 6.95-14.24 11.92-19.46-3.29-1.07-7.62-1.12-12.94-.13a3.94 3.94 0 0 1 -4.66-3.87c0-.44-.55-11.93-19.59-14.05-5.39-.6-9.24.33-11.45 2.77-3.34 3.7-2.75 10.64-2.24 13a3.95 3.95 0 0 1 -3.55 4.77c-.55.05-13.95 1.51-21.88 19.63 7.49 4.62 14.61 5.59 21.19 2.88a33 33 0 0 1 12.59-2.81z"/><path d="m367.83 276.45a43.19 43.19 0 0 0 -7.43 19.27c-29.59 19.1-63.74 24.71-83.49 26.32.23 39.46 1 76.74 2.78 104.54a95.16 95.16 0 0 1 -23.69 5.5v.1h-.44-.44v-.1a95.16 95.16 0 0 1 -23.68-5.49c1.76-27.8 2.55-65.08 2.78-104.54-19.53-1.59-53.18-7.1-82.54-25.71a43.24 43.24 0 0 0 -7.5-19.89 57.68 57.68 0 0 0 12-5.67c15.28 5.87 37.64 12.22 62.82 12.22a142.21 142.21 0 0 0 15.3-.81c-.26-92.73-2.84-184.14-2.84-184.14a36 36 0 0 1 24.12-7.95 36 36 0 0 1 24.12 7.95s-2.58 91.42-2.84 184.14a142.21 142.21 0 0 0 15.3.81c25.44 0 48-6.53 63.33-12.47a57.54 57.54 0 0 0 12.34 5.92z" fill="#fff"/><path d="m94.13 164.81s-64.13 28.19-82.13 82.12-9 151.42 59 172 89.83-56.46 74.43-93.68c0 0 15.4-24.38-1.28-48.76 0 0 38.5-11.55 39.78-52.61s-38.47-80.88-89.8-59.07z" fill="#f55555"/><path d="m42.31 200.67s-9.77-43.56 30-42.28c0 0-3.85-29.51 29.51-26.95 0 0-10.27-35.93 24.38-29.51 0 0 0-15.4 23.1-18s18 20.53 18 20.53 16.68 1.28 25.66 23.1-5.13 30.8-5.13 30.8a30.54 30.54 0 0 1 15.4 19.25c3.85 14.12-9 26.95-9 26.95s11.77 27.44-12.1 32.35c0 0-8.44-5.37-14.86-23.34s-21.81-34.65-44.91-38.5-57.45 24.25-80.05 25.6z" fill="#ffd95f"/><path d="m182.13 240.85a3.94 3.94 0 0 1 -2.11-.62c-.39-.25-9.66-6.32-16.45-25.34-6.89-19.28-22.57-32.71-41.86-35.89-11.64-2-27.45 5.53-42.71 12.78-13.22 6.22-25.68 12.22-36.46 12.82a3.94 3.94 0 0 1 -4.08-3.07c-.21-.93-5-22.89 6.41-36.64 5.35-6.46 13.2-10 23.38-10.41.17-4.87 1.44-12.81 7.23-18.92 5-5.29 12.24-8 21.49-8.2-.92-6.28-1.25-16.87 5-23.77 4.63-5.09 11.71-7.13 21.09-6.09 1.81-5.79 7.56-15.41 25.77-17.44 8.08-.9 14.2.9 18.19 5.36 4.4 4.91 4.82 11.73 4.56 16 6.15 1.8 17.84 7.41 25 24.7 6.22 15.11 2.41 25.82-2.35 31.67a34.85 34.85 0 0 1 12.77 18.81c3.51 12.86-4.55 24.39-8.27 28.84 1.6 4.81 4.38 15.82-.2 24.58-2.93 5.6-8.18 9.22-15.61 10.74a3.94 3.94 0 0 1 -.79.09zm-64.33-70.07a31.59 31.59 0 0 1 5.2.41c22.18 3.7 40.11 19 48 41.06 4.4 12.32 9.77 18.24 12.11 20.38 4.08-1.16 6.86-3.21 8.45-6.23 4.18-8-.89-20.14-.94-20.26a4 4 0 0 1 .84-4.33c.11-.11 11.16-11.43 8-23.13a26.51 26.51 0 0 0 -13.26-16.68 3.94 3.94 0 0 1 -.51-6.92c.43-.28 11.14-7.69 3.61-26-7.87-19.1-21.77-20.62-22.36-20.67a4 4 0 0 1 -3.51-4.78c.51-2.35 1.1-9.29-2.24-13-2.2-2.44-6.05-3.37-11.44-2.77-19.37 2.15-19.6 13.93-19.6 14.05a3.94 3.94 0 0 1 -4.66 3.87c-8.43-1.56-14.37-.53-17.64 3.06-5.2 5.7-3.37 17.45-2.23 21.5a3.94 3.94 0 0 1 -4.09 5c-9.25-.71-16.07 1.16-20.28 5.57-6.23 6.52-5 16.86-5 17a4 4 0 0 1 -1 3.15 4 4 0 0 1 -3 1.29c-9.68-.32-16.82 2.24-21.24 7.59-6.61 8-6.09 20.4-5.36 26.4 8.64-1.51 19.05-6.45 30-11.65 14.35-6.87 29.2-13.91 42.15-13.91z"/><path d="m110.81 289.37a3.94 3.94 0 0 1 0-7.88 75 75 0 0 0 31.5-8.51 3.94 3.94 0 1 1 3.73 6.93 81.64 81.64 0 0 1 -35.23 9.46z"/><path d="m122.36 338.13a3.94 3.94 0 0 1 -.7-7.81c12.79-2.33 19.94-8.09 20-8.14a3.94 3.94 0 0 1 5 6.06c-.35.29-8.67 7.11-23.63 9.83a4 4 0 0 1 -.67.06z"/><path d="m401.19 289.37a81.64 81.64 0 0 1 -35.19-9.45 3.94 3.94 0 1 1 3.73-6.93 75 75 0 0 0 31.5 8.51 3.94 3.94 0 0 1 0 7.88z"/><path d="m389.64 338.13a4 4 0 0 1 -.71-.06c-15-2.72-23.29-9.54-23.63-9.83a3.94 3.94 0 0 1 5-6.06c.13.11 7.27 5.83 20 8.14a3.94 3.94 0 0 1 -.7 7.81z"/><path d="m157.59 141.39h-.09a3.94 3.94 0 0 1 -3.85-4c.24-11.05-6.78-15.7-6.85-15.74a3.94 3.94 0 1 1 4.26-6.62c.44.28 10.79 7.12 10.46 22.53a3.94 3.94 0 0 1 -3.93 3.83z"/><path d="m113.77 158.34a33.26 33.26 0 0 1 -10.33-1.63 3.94 3.94 0 0 1 2.64-7.42c.57.2 13.68 4.62 21.27-5a3.94 3.94 0 1 1 6.19 4.87c-5.82 7.38-13.54 9.18-19.77 9.18z"/><path d="m169.55 183.2a3.94 3.94 0 0 1 -3.93-3.94c0-12.55-9.29-15.08-9.39-15.1a3.94 3.94 0 0 1 2-7.63c5.3 1.36 15.32 7.86 15.31 22.74a3.94 3.94 0 0 1 -3.99 3.93z"/><path d="m231.44 430.52h-.25a3.94 3.94 0 0 1 -3.68-4.18c1.49-24.34 2.49-58.16 2.74-100.7-19.11-1.89-52-7.77-80.68-26a3.94 3.94 0 0 1 -1.81-2.9 39.48 39.48 0 0 0 -6.84-18.1 3.94 3.94 0 0 1 2.12-6 54.9 54.9 0 0 0 11.1-5.27 3.94 3.94 0 0 1 3.46-.31c14.23 5.47 36.42 12 61.37 12 3.83 0 7.64-.15 11.35-.45-.31-90.4-2.8-179.55-2.82-180.45a3.94 3.94 0 0 1 7.87-.22c0 .92 2.58 92.53 2.84 184.24a3.94 3.94 0 0 1 -3.52 3.93 146.87 146.87 0 0 1 -15.69.89c-25.13 0-47.53-6.29-62.42-11.84a68.83 68.83 0 0 1 -6.55 3.29 46.67 46.67 0 0 1 5.31 15.55c28.86 17.73 61.89 22.73 79.19 24.14a3.94 3.94 0 0 1 3.62 3.95c-.25 44.39-1.19 79.64-2.78 104.77a3.94 3.94 0 0 1 -3.93 3.66z"/><path d="m279.68 430.52a3.94 3.94 0 0 1 -3.93-3.69c-1.59-25.13-2.53-60.38-2.78-104.77a3.94 3.94 0 0 1 3.62-3.95c17.58-1.43 51.12-6.54 80.17-24.74a46.61 46.61 0 0 1 5.23-15 68.72 68.72 0 0 1 -6.89-3.5c-15 5.66-37.55 12.05-63 12.05a146.87 146.87 0 0 1 -15.72-.83 3.94 3.94 0 0 1 -3.52-3.93c.25-91.72 2.81-183.33 2.84-184.24a3.94 3.94 0 0 1 7.87.22c0 .9-2.51 90.05-2.82 180.45 3.71.3 7.52.45 11.35.45 25.22 0 47.58-6.64 61.9-12.21a4 4 0 0 1 3.51.32 54.6 54.6 0 0 0 11.49 5.53 3.94 3.94 0 0 1 2.11 6 39.45 39.45 0 0 0 -6.77 17.5 4 4 0 0 1 -1.78 2.86c-28.94 18.68-62.28 24.69-81.67 26.61.28 42.54 1.21 76.4 2.75 100.7a3.94 3.94 0 0 1 -3.68 4.18z"/><path d="m92.73 426.29a79 79 0 0 1 -22.84-3.63c-23-7-41-22.52-53.26-46.26-21.71-41.91-19.55-97.13-8.36-130.7a109.5 109.5 0 0 1 15.24-29.27 145 145 0 0 1 16-18.56 3.94 3.94 0 0 1 5.52 5.62 137 137 0 0 0 -15.13 17.51 101.67 101.67 0 0 0 -14.16 27.16c-10.68 32-12.77 84.7 7.88 124.58 11.28 21.78 27.61 36 48.54 42.35 23 7 42.47 2.65 56.16-12.47 19-21 21.83-55.78 13.5-75.92a3.94 3.94 0 0 1 .31-3.61c.07-.11 7.24-11.79 5.63-26.34a39.49 39.49 0 0 0 -6.84-18.1 3.94 3.94 0 0 1 2.12-6 54.9 54.9 0 0 0 11.1-5.27 56 56 0 0 0 16.18-14.58 3.94 3.94 0 0 1 6.34 4.67 63.84 63.84 0 0 1 -18.43 16.64 69.59 69.59 0 0 1 -8.22 4.28 46.53 46.53 0 0 1 5.58 17.49 53 53 0 0 1 -5.78 29.61c8.37 22.58 4.9 59.72-15.65 82.41a54.28 54.28 0 0 1 -41.43 18.39z"/><path d="m182.14 240.84a4 4 0 0 1 -2.12-.62c-.39-.25-9.66-6.31-16.45-25.33-6.89-19.28-22.57-32.71-41.86-35.89-11.64-2-27.45 5.53-42.71 12.79-13.22 6.21-25.67 12.21-36.46 12.82a4 4 0 0 1 -4.08-3.07c-.21-.93-5-22.89 6.41-36.65 5.35-6.46 13.2-10 23.38-10.42.17-4.87 1.44-12.8 7.23-18.92 5-5.3 12.24-8 21.5-8.21-.92-6.28-1.26-16.87 5-23.77 4.62-5.09 11.71-7.13 21.09-6.09 1.81-5.79 7.56-15.41 25.78-17.44 8.08-.9 14.2.9 18.19 5.36 4.4 4.91 4.82 11.73 4.56 16 6.15 1.8 17.84 7.41 25 24.69 6.22 15.11 2.4 25.83-2.35 31.67a34.87 34.87 0 0 1 12.75 18.85c3.51 12.86-4.56 24.39-8.27 28.84 1.61 4.8 4.38 15.81-.2 24.56-2.93 5.61-8.18 9.22-15.6 10.75a3.93 3.93 0 0 1 -.79.08zm-64.34-70.06a31.58 31.58 0 0 1 5.2.41c22.19 3.7 40.13 19 48 41.06 4.43 12.4 9.78 18.27 12.1 20.38 4.1-1.16 6.87-3.21 8.47-6.24 4.18-8-.9-20.12-.95-20.25a4 4 0 0 1 .83-4.33c.18-.18 11.16-11.48 8-23.13a26.47 26.47 0 0 0 -13.26-16.68 3.95 3.95 0 0 1 -.49-6.91c.43-.28 11.13-7.68 3.6-26-7.86-19.1-21.77-20.62-22.36-20.67a4 4 0 0 1 -3.51-4.78c.51-2.35 1.1-9.29-2.24-13-2.2-2.44-6.05-3.37-11.44-2.77-19.38 2.15-19.61 13.93-19.61 14.05a3.94 3.94 0 0 1 -4.66 3.87c-8.44-1.56-14.38-.53-17.65 3.07-6.19 6.81-2.26 21.33-2.22 21.48a3.94 3.94 0 0 1 -4.09 5c-9.27-.7-16.12 1.18-20.32 5.61-6.15 6.49-5 16.8-5 16.9a3.94 3.94 0 0 1 -4 4.45c-9.67-.32-16.81 2.24-21.24 7.59-6.61 8-6.09 20.4-5.35 26.41 8.64-1.51 19.05-6.45 30-11.65 14.39-6.82 29.24-13.87 42.19-13.87z"/><path d="m329.87 240.84a4 4 0 0 1 -.8-.08c-7.43-1.53-12.68-5.14-15.6-10.75-4.57-8.75-1.8-19.76-.2-24.56-3.72-4.45-11.78-16-8.27-28.84a34.87 34.87 0 0 1 12.77-18.85c-4.75-5.84-8.56-16.56-2.35-31.67 7.12-17.29 18.81-22.9 25-24.7-.27-4.26.15-11.08 4.56-16 4-4.45 10.12-6.26 18.19-5.36 18.22 2 24 11.65 25.78 17.44 9.38-1 16.47 1 21.1 6.09 6.27 6.9 5.94 17.49 5 23.77 9.26.16 16.47 2.91 21.5 8.21 5.8 6.11 7.06 14 7.23 18.92 10.18.46 18 4 23.38 10.42 11.38 13.76 6.62 35.72 6.41 36.65a3.94 3.94 0 0 1 -4.08 3.07c-10.82-.6-23.27-6.6-36.49-12.81-15.29-7.26-31.1-14.76-42.74-12.83-19.33 3.22-35 16.65-41.85 35.93-6.8 19-16.06 25.09-16.45 25.33a3.94 3.94 0 0 1 -2.09.62zm29.39-153.14c-3.86 0-6.7 1-8.46 3-4 4.44-2.24 12.89-2.22 13a3.94 3.94 0 0 1 -3.54 4.78c-.56.05-14.47 1.57-22.33 20.67-7.53 18.29 3.18 25.69 3.64 26a4 4 0 0 1 -.55 6.9 26.47 26.47 0 0 0 -13.2 16.7c-3.21 11.77 7.86 23 8 23.13a3.94 3.94 0 0 1 .83 4.34c0 .12-5.12 12.28-.95 20.24 1.59 3 4.37 5.08 8.46 6.24 2.32-2.12 7.7-8 12.11-20.38 7.85-22 25.79-37.36 48-41.06 14.08-2.35 31 5.7 47.41 13.48 10.94 5.2 21.35 10.14 30 11.65.73-6 1.24-18.48-5.36-26.43-4.42-5.33-11.55-7.89-21.22-7.57a3.94 3.94 0 0 1 -4-4.45c0-.09 1.2-10.42-5-16.94-4.21-4.41-11-6.28-20.28-5.57a3.94 3.94 0 0 1 -4.09-5c1.14-4 3-15.79-2.23-21.49-3.28-3.59-9.21-4.62-17.64-3.06a3.94 3.94 0 0 1 -4.66-3.87c0-.44-.55-11.93-19.6-14.05a27.24 27.24 0 0 0 -3.12-.26z"/></svg>