<svg id="Capa_1" enable-background="new 0 0 512.005 512.005" height="512" viewBox="0 0 512.005 512.005" width="512" xmlns="http://www.w3.org/2000/svg"><g><path d="m125.687 122.002h-.096c-19.14 0-34.841-15.571-34.999-34.709l-.59-72.413c-.067-8.236-6.763-14.878-15-14.878h-14.878l-16.25 10-13.707-10h-15.164c-8.333 0-15.091 6.805-14.999 15.164l.799 73.188c.572 51.698 32.206 95.071 76.457 113.817-10.465 40.26-6.692 84.975 10.658 119.885 23.544 47.373 78.292 84.984 123.036 109.324v65.621c0 8.284 6.716 15 15 15h15l25.05-10v-394l-10-30c-52.955.001-97.855 15.189-130.317 44.001z" fill="#fde9e2"/><path d="m497.003.002h-15.165l-16.119 10-13.838-10h-14.878c-8.237 0-14.933 6.642-15 14.878l-.59 72.411c-.125 15.206-10.169 28.44-24.212 33.002-33.254-27.698-81.852-42.291-141.198-42.291v424l14.95 10h15c8.284 0 15-6.716 15-15v-66.658c82.119-46.808 112.735-84.753 123.892-108.607 19.883-42.512 26.33-85.861 18.615-123.62 39.405-20.284 67.209-61.479 67.743-109.764l.799-73.187c.091-8.332-6.639-15.164-14.999-15.164z" fill="#fcd9ca"/><path d="m141.955 147.809c-5.991 5.767-12.92 3.812-16.364 4.193-35.546 0-64.704-28.918-64.998-64.463l-.469-87.537h-29.957l.634 88.022c.481 43.427 29.923 79.3 69.088 90.371 8.357 2.362 12.963 11.313 10.045 19.479-6.662 18.656-9.397 38.947-8.323 58.623l154.391 61.306 10-10.802v-187.12l-10-11.88c-48.234.001-86.605 13.394-114.047 39.808z" fill="#ff8381"/><path d="m451.881.002-.469 87.535c-.267 32.238-24.551 59.707-56.488 63.896-4.448.58-8.924-.855-12.201-3.922-27.617-25.848-71.436-39.51-126.72-39.51v209.802l154.096-42.068c8.169-29.232 8.758-57.46 1.402-81.795-2.27-7.511 1.631-15.502 8.95-18.331 36.474-14.1 60.322-48.479 60.754-87.587l.634-88.021h-29.958z" fill="#ff5955"/><path d="m198.445 276.002c-50.336 0-55.063-16.42-96.833-19.504 1.014 18.585 5.425 36.622 13.171 52.207 22.524 45.322 83.68 82.353 118.129 100.392 4.944 2.589 8.042 7.708 8.042 13.288v89.617h15.05l10-10v-221.186l-10-15.534c-14.59 5.228-28.448 10.72-57.559 10.72z" fill="#ffd92c"/><path d="m309.555 256.002c-26.444 0-40.3 4.531-53.553 9.281v246.719h14.95v-90.432c0-5.45 2.956-10.471 7.721-13.115 62.22-34.529 105.592-70.771 118.996-99.429 5.209-11.137 9.353-22.285 12.429-33.291-45.235-2.358-48.757-19.733-100.543-19.733z" fill="#fcbd00"/><circle cx="316.003" cy="322.002" fill="#ffd92c" r="15"/><path d="m241.003 352.002c0 8.284 6.716 15 15 15l10-13.802-10-16.198c-8.284 0-15 6.716-15 15z" fill="#fcf400"/><path d="m256.003 337.002v30c8.284 0 15-6.716 15-15s-6.716-15-15-15z" fill="#ffd92c"/><circle cx="196.003" cy="322.002" fill="#fcf400" r="15"/><path d="m439.448 441.922-32.009-21.266c-6.899-4.585-16.21-2.706-20.794 4.193-4.584 6.9-2.707 16.211 4.194 20.795l13.217 8.781-13.264 8.825c-8.891 5.916-8.942 19.037.009 24.982l32.009 21.263c6.885 4.575 16.2 2.721 20.794-4.194 4.584-6.9 2.706-16.211-4.195-20.794l-13.215-8.779 13.263-8.824c8.89-5.916 8.942-19.035-.009-24.982z" fill="#ff5955"/><path d="m511.706 395.382c-1.638-8.121-9.549-13.37-17.669-11.738l-15.552 3.138 3.138-15.618c2.105-10.475-7.144-19.781-17.671-17.659l-37.671 7.597c-8.121 1.638-13.376 9.549-11.739 17.669s9.546 13.373 17.669 11.739l15.555-3.137-3.139 15.619c-2.102 10.463 7.132 19.778 17.672 17.659l37.669-7.599c8.122-1.639 13.377-9.55 11.738-17.67z" fill="#ff5955"/><g fill="#ff8381"><path d="m121.214 463.251-13.264-8.825 13.217-8.781c6.9-4.584 8.778-13.895 4.194-20.795-4.585-6.9-13.896-8.776-20.794-4.193l-32.009 21.266c-8.895 5.91-8.955 19.03-.009 24.982l13.263 8.824-13.215 8.779c-6.9 4.583-8.779 13.894-4.195 20.794 4.599 6.923 13.916 8.766 20.794 4.194l32.009-21.263c8.9-5.911 8.949-19.033.009-24.982z"/><path d="m67.378 402.991-3.139-15.619 15.555 3.137c8.124 1.642 16.032-3.619 17.669-11.739s-3.618-16.031-11.739-17.669l-37.671-7.597c-10.492-2.124-19.781 7.159-17.671 17.659l3.138 15.618-15.552-3.138c-8.118-1.643-16.031 3.618-17.669 11.739-1.638 8.12 3.617 16.031 11.738 17.67l37.669 7.599c10.51 2.122 19.778-7.178 17.672-17.66z"/></g></g></svg>