<svg xmlns="http://www.w3.org/2000/svg" version="1.1" xmlns:xlink="http://www.w3.org/1999/xlink" width="512" height="512" x="0" y="0" viewBox="0 0 512 512" style="enable-background:new 0 0 512 512" xml:space="preserve" class=""><g><path d="m199.262 124.684 41.499 41.418a7.532 7.532 0 1 0 10.642-10.664l-41.487-41.406c-10.787-10.955-16.728-25.447-16.728-40.808 0-32.068 26.094-58.157 58.167-58.157 23.831 0 44.997 14.28 53.924 36.38a7.534 7.534 0 0 0 6.983 4.712h.001a7.534 7.534 0 0 0 6.984-4.709c8.936-22.101 30.107-36.382 53.935-36.382 32.073 0 58.167 26.089 58.167 58.157 0 15.361-5.941 29.853-16.727 40.807L312.265 216.198l-37.628-37.557a7.531 7.531 0 0 0-10.653.01 7.532 7.532 0 0 0 .01 10.653l42.95 42.869c4.448 4.07 6.457 4.07 10.644 0l107.69-107.49.081-.081c13.58-13.79 21.059-32.037 21.059-51.379C446.417 32.848 413.564 0 373.183 0c-24.917 0-47.525 12.402-60.916 32.545C298.882 12.4 276.277 0 251.356 0c-40.381 0-73.233 32.848-73.233 73.224 0 19.342 7.479 37.588 21.059 51.379l.08.081z" fill="#3c426d" opacity="1" data-original="#000000"></path><path d="M329.376 62.375h-31.2a7.533 7.533 0 0 0-7.533 7.533v23.667h-23.666a7.533 7.533 0 0 0-7.533 7.533v31.2a7.533 7.533 0 0 0 7.533 7.533h23.666v23.667a7.533 7.533 0 0 0 7.533 7.533h31.2a7.533 7.533 0 0 0 7.533-7.533v-23.667h23.666a7.533 7.533 0 0 0 7.533-7.533v-31.2a7.533 7.533 0 0 0-7.533-7.533h-23.666V69.909a7.534 7.534 0 0 0-7.533-7.534zm23.666 46.267v16.133h-23.666a7.533 7.533 0 0 0-7.533 7.533v23.667h-16.134v-23.667a7.533 7.533 0 0 0-7.533-7.533H274.51v-16.133h23.666a7.533 7.533 0 0 0 7.533-7.533V77.442h16.134v23.667a7.533 7.533 0 0 0 7.533 7.533zM487.283 248.258c-8.403-13.27-24.493-17.723-37.683-10.111l-96.296 55.605c-3.153-11.767-13.909-20.456-26.657-20.456h-45.975c-18.562-7.928-38.662-15.539-59.069-15.539-26.844 0-52.353 12.024-73.769 34.773-8.788 9.335-15.174 18.63-19.186 25.196l-14.811-14.811c-3.551-2.942-7.102-2.942-10.653 0l-16.068 16.068-8.247-8.253a7.533 7.533 0 0 0-10.656-.001l-44.989 44.998a7.533 7.533 0 0 0-.001 10.651l28.375 28.395c2.941 2.943 7.71 2.945 10.653.004s2.945-7.711.004-10.653l-23.053-23.069 34.336-34.344 132.671 132.765-34.344 34.336-86.398-86.465c-2.941-2.943-7.71-2.945-10.653-.004s-2.945 7.71-.004 10.653l91.725 91.795a7.533 7.533 0 0 0 5.327 2.208h.002a7.533 7.533 0 0 0 5.326-2.206l44.999-44.989a7.532 7.532 0 0 0 .002-10.652l-15.853-15.864 16.109-16.11a7.532 7.532 0 0 0 0-10.653l-14.724-14.724h42.838a7.533 7.533 0 0 0 0-15.066h-57.904l-53.004-53.004c8.101-14.119 35.968-55.907 81.95-55.907 18.96 0 37.697 7.68 54.951 15.033a7.521 7.521 0 0 0 2.714.506h47.379c15.522 0 18.893 24.468 0 25.048h-90.962a7.533 7.533 0 0 0 0 15.066h90.962c11.133 0 20.911-6.529 25.26-16.522l105.225-60.76c11.452-6.666 27.021 10.661 11.654 22.283L341.802 372.73c-7.418 5.807-16.699 9.006-26.132 9.006h-32.282a7.533 7.533 0 0 0 0 15.066h32.282c12.784 0 25.363-4.336 35.415-12.205l126.601-98.952c13.001-9.895 17.014-24.542 9.597-37.387zM195.728 427.593l-97.957-97.957 10.74-10.74 97.957 97.957z" fill="#3c426d" opacity="1" data-original="#000000"></path></g></svg>