<svg id="Capa_1" enable-background="new 0 0 511.971 511.971" height="512" viewBox="0 0 511.971 511.971" width="512" xmlns="http://www.w3.org/2000/svg"><g><g><g><g><path d="m208.32 494.882h28.083v-117.397c0-37.787-11.28-66.802-33.526-86.241-35.771-31.255-86.231-24.837-88.362-24.549l3.726 27.835c.399-.052 40.268-4.898 66.297 17.986 15.78 13.873 23.781 35.731 23.781 64.97v117.396z" fill="#8795de"/></g><g><path d="m153.685 135.504c29.773 17.851 36.383 60.806 24.074 93.601-12.309 32.794-26.237 47.232-23.747 96.206.875 17.211-.471 43.788-30.376 52.213-30.822 8.683-122.234-4.575-115.83-136.035 6.695-137.448 110.572-127.155 145.879-105.985z" fill="#fe646f"/></g><path d="m153.685 135.504c-14.596-8.751-40.909-15.632-67.231-10.997 12.805 2.128 24.046 6.291 31.895 10.997 29.773 17.851 36.383 60.806 24.074 93.601-12.309 32.794-26.237 47.232-23.747 96.206.875 17.211-.471 43.788-30.376 52.213-.199.056-.411.107-.616.161 14.373 2.949 27.462 2.23 35.952-.161 29.904-8.425 31.251-35.001 30.376-52.213-2.489-48.973 11.438-63.411 23.747-96.206s5.699-75.75-24.074-93.601z" fill="#fd4755"/></g><g><g><path d="m397.455 266.694-3.73 27.84c-.39-.06-40.26-4.9-66.29 17.98-1.59 1.4-3.11 2.88-4.54 4.45-12.77 13.91-19.24 34.23-19.24 60.52v117.4h-28.09v-117.4c0-37.79 11.28-66.8 33.53-86.24 3.43-3 7-5.65 10.65-7.99 20.64-13.27 43.82-16.66 59.47-17.21 10.4-.36 17.47.55 18.24.65z" fill="#8795de"/></g><g><path d="m395.195 264.854c-5.48.64-10.81 1.03-15.98 1.19-1.72.05-3.43.08-5.11.08-28.17 0-51.3-7.34-69.02-21.9-1.3-1.07-2.57-2.18-3.81-3.32-32.91-30.38-31.69-76.45-31.62-78.4v-103.75h28.06v104.68c0 .07-.03 1.51.11 3.95.57 9.82 3.87 35.81 22.66 53.03 15.94 14.61 40 20.17 71.5 16.55z" fill="#fdb4ba"/></g><g><path d="m395.195 264.854c-5.48.64-10.81 1.03-15.98 1.19-1.72.05-3.43.08-5.11.08-28.17 0-51.3-7.34-69.02-21.9-2.06-4.69-4.16-9.65-6.21-15.12-7.3-19.45-7.95-42.48-1.05-61.72.57 9.82 3.87 35.81 22.66 53.03 15.94 14.61 40 20.17 71.5 16.55z" fill="#fe99a0"/><path d="m397.455 266.694-3.73 27.84c-.39-.06-40.26-4.9-66.29 17.98-1.59 1.4-3.11 2.88-4.54 4.45.19-13.62-1.03-24.37-3.15-33.71 20.64-13.27 43.82-16.66 59.47-17.21 10.4-.36 17.47.55 18.24.65z" fill="#7289db"/></g><g><path d="m358.286 135.504c-29.773 17.851-36.383 60.806-24.074 93.601s26.237 47.232 23.747 96.206c-.875 17.211.471 43.788 30.376 52.213 30.822 8.683 122.234-4.575 115.83-136.035-6.695-137.448-110.572-127.155-145.879-105.985z" fill="#fe646f"/></g><path d="m504.165 241.488c-5.207-106.892-69.187-124.424-113.984-116.981 37.351 6.577 74.72 36.354 78.648 116.981 4.64 95.251-42.07 128.439-79.879 136.196 31.394 8.342 121.578-5.585 115.215-136.196z" fill="#fd4755"/></g><g><path d="m215.841 209.389h-183.179c-19.215 0-30.851-21.222-20.52-37.423l91.59-143.628c9.567-15.002 31.473-15.002 41.04 0l91.59 143.628c10.331 16.201-1.306 37.423-20.521 37.423z" fill="#ffe177"/></g><path d="m236.362 171.966-91.59-143.628c-9.567-15.002-31.473-15.002-41.04 0l-8.004 12.552c7.085.653 13.927 4.358 18.25 11.137l76.389 119.939c10.331 16.201-1.305 37.423-20.52 37.423h45.996c19.213 0 30.85-21.222 20.519-37.423z" fill="#ffd15b"/></g><g><path d="m184.776 231.742c1.789-4.76 3.206-9.737 4.252-14.854h26.814c11.804 0 22.24-6.18 27.916-16.53 5.676-10.351 5.275-22.472-1.072-32.425l-91.59-143.627c-5.877-9.217-15.913-14.72-26.844-14.72s-20.966 5.503-26.844 14.72l-91.59 143.628c-6.347 9.953-6.748 22.074-1.072 32.425 5.675 10.351 16.111 16.53 27.916 16.53h141.002c-3.639 14.387-11.159 28.298-17.014 42.737-.916-1.488-1.928-2.998-3.045-4.507-8.252-11.145-23.932-24.429-51.769-24.429-4.142 0-7.5 3.357-7.5 7.5s3.358 7.5 7.5 7.5c36.625 0 46.13 28.354 47.893 35.212-2.763 11.862-4.164 25.904-3.204 44.792.926 18.325-1.311 37.956-24.923 44.612-14.137 3.982-44.081 2.809-68.632-16.741-27.151-21.62-40.179-60.251-37.673-111.713.065-1.338.14-2.661.224-3.971.266-4.134-2.871-7.7-7.004-7.965-4.136-.274-7.7 2.871-7.965 7.004-.089 1.384-.168 2.783-.237 4.2-1.917 39.39 4.04 92.907 43.312 124.179 19.714 15.698 43.279 21.899 62.557 21.898 7.244-.001 13.887-.877 19.487-2.454 38.313-10.799 36.449-47.687 35.835-59.81-.328-6.453-.359-12.256-.142-17.565 7.014 2.707 13.129 6.305 18.221 10.778 14.088 12.384 21.231 32.348 21.231 59.338v117.399c0 4.143 3.358 7.5 7.5 7.5s7.5-3.357 7.5-7.5v-117.399c0-31.493-8.858-55.248-26.33-70.605-7.381-6.485-16.332-11.465-26.634-14.9.738-4.617 1.702-8.851 2.847-12.86 12.434 3.966 23.26 9.922 32.243 17.774 20.546 17.95 30.964 45.065 30.964 80.592v117.399c0 4.143 3.358 7.5 7.5 7.5s7.5-3.357 7.5-7.5v-117.4c0-40.047-12.144-70.963-36.094-91.887-5.23-4.571-10.971-8.583-17.181-12.032 15.221-4.361 31.889-13.547 38.863-32.824 1.409-3.896-.606-8.195-4.501-9.604-3.896-1.411-8.195.605-9.604 4.501-6.996 19.334-29.686 24.754-43.427 26.246 3.622-8.481 8.621-18.998 12.814-30.142zm-166.878-38.595c-3.001-5.474-2.79-11.885.567-17.148l91.59-143.627c3.155-4.947 8.329-7.784 14.196-7.784s11.042 2.837 14.196 7.784l91.59 143.627c3.356 5.264 3.568 11.675.567 17.148-3.001 5.475-8.521 8.742-14.763 8.742h-183.179c-6.243 0-11.762-3.269-14.764-8.742z"/><path d="m303.655 423.961c-4.142 0-7.5 3.357-7.5 7.5v63.423c0 4.143 3.358 7.5 7.5 7.5s7.5-3.357 7.5-7.5v-63.423c0-4.143-3.357-7.5-7.5-7.5z"/><path d="m511.656 241.123c-3.476-71.355-32.774-101.608-56.741-114.423-37.439-20.019-80.606-9.549-100.486 2.371-15.61 9.359-26.719 25.69-31.279 45.984-2.595 11.548-2.953 24.058-1.181 36.191-17.074-19.148-16.762-47.341-16.757-47.604.002-.069.003-.14.003-.209v-104.679c0-4.143-3.358-7.5-7.5-7.5s-7.5 3.357-7.5 7.5v104.67c-.028 3.035.194 39.601 25.199 62.516 3.925 3.603 8.34 6.739 13.146 9.358 2.507 6.38 5.024 12.04 7.471 17.531-11.356-3.884-21.301-9.713-29.669-17.435-30.445-28.104-29.277-70.816-29.212-72.621.003-.09.005-.179.005-.269v-103.75c0-4.143-3.358-7.5-7.5-7.5s-7.5 3.357-7.5 7.5v103.632c-.105 3.637-.804 51.871 34.034 84.03 10.498 9.687 22.998 16.84 37.28 21.37-11.011 4.437-20.826 10.396-29.308 17.81-23.951 20.926-36.095 51.842-36.095 91.889v117.399c0 4.143 3.358 7.5 7.5 7.5s7.5-3.357 7.5-7.5v-117.4c0-35.526 10.418-62.642 30.965-80.594 8.982-7.85 19.807-13.806 32.241-17.772 1.146 4.009 2.111 8.242 2.849 12.859-10.303 3.435-19.255 8.416-26.637 14.903-17.471 15.355-26.329 39.11-26.329 70.604v18.62c0 4.143 3.358 7.5 7.5 7.5s7.5-3.357 7.5-7.5v-18.62c0-26.99 7.144-46.954 21.23-59.337 5.093-4.474 11.209-8.073 18.225-10.781.217 5.308.186 11.11-.142 17.562-.616 12.123-2.492 49.016 35.833 59.812 5.604 1.579 12.244 2.456 19.493 2.455 19.275 0 42.841-6.201 62.551-21.895 39.274-31.268 45.23-84.786 43.311-124.177zm-52.653 112.445c-24.552 19.549-54.496 20.72-68.634 16.736-23.619-6.654-25.851-26.286-24.919-44.613.96-18.888-.442-32.93-3.207-44.792 1.763-6.858 11.269-35.209 47.893-35.209 4.142 0 7.5-3.357 7.5-7.5s-3.358-7.5-7.5-7.5c-27.837 0-43.517 13.284-51.769 24.429-1.118 1.51-2.13 3.021-3.047 4.51-4.147-10.133-9.453-20.885-14.086-33.159-13.808-36.787-.212-71.869 20.909-84.532 9.716-5.826 27.022-11.442 46.135-11.442 12.959 0 26.75 2.583 39.564 9.435 29.465 15.754 46.35 50.999 48.831 101.925 2.508 51.462-10.519 90.092-37.67 111.712z"/><path d="m124.252 159.163c-4.13 0-7.479 3.348-7.479 7.479 0 4.13 3.348 7.479 7.479 7.479 4.13 0 7.479-3.348 7.479-7.479-.001-4.131-3.349-7.479-7.479-7.479z"/><path d="m124.252 67.797c-4.142 0-7.5 3.357-7.5 7.5v55.299c0 4.143 3.358 7.5 7.5 7.5s7.5-3.357 7.5-7.5v-55.299c0-4.143-3.358-7.5-7.5-7.5z"/></g></g></svg>