<svg id="Capa_1" enable-background="new 0 0 512 512" height="512" viewBox="0 0 512 512" width="512" xmlns="http://www.w3.org/2000/svg"><g><path d="m223.488 0h-167.41c0 96-49.67 116.58-49.67 256 0 96 27.75 256 27.75 256h155.56l7.3-99.8h46.333z" fill="#ffe0d2"/><path d="m440.558 256c0 96-27.75 256-27.75 256h-155.56l-7.3-99.8h-26.46v-412.2h167.4c0 11.67.74 22.22 2.03 32.01l47.54 213.73c.06 3.36.1 6.76.1 10.26z" fill="#ffd3c5"/><path d="m223.488 397.62c-12.24 0-22.19-9.95-22.19-22.18l-.01-62.21h-15c-16.64 0-30.18-13.54-30.18-30.18h-30c0 28.01 19.23 51.61 45.18 58.29l.01 34.1c0 28.78 23.41 52.18 52.19 52.18l19.864-20.29z" fill="#ffd3c5"/><path d="m320.848 283.05c0 28.01-19.23 51.61-45.17 58.29v34.1c0 28.77-23.42 52.18-52.19 52.18v-30c12.23 0 22.19-9.95 22.19-22.18v-62.21h15c16.64 0 30.17-13.54 30.17-30.18z" fill="#ffbab0"/><path d="m223.488 150.62 7.495 15-7.495 15h-15.01v-30z" fill="#ffd3c5"/><path d="m223.488 150.62h14.99v30h-14.99z" fill="#ffbab0"/><path d="m393.592 32c-61.856 0-112 50.144-112 112 0 14.72 2.845 28.774 8.007 41.65l-8.007 70.35 67.911-9.017c13.531 5.801 28.434 9.017 44.089 9.017 61.856 0 112-50.144 112-112s-50.145-112-112-112z" fill="#fdc624"/><g fill="#ec287c"><path d="m378.591 71.372h30v32.686h-30z"/><path d="m378.591 183.942h30v32.686h-30z"/><path d="m329.847 99.514h30v32.686h-30z" transform="matrix(.5 -.866 .866 .5 72.089 356.576)"/><path d="m427.336 155.8h30v32.686h-30z" transform="matrix(.5 -.866 .866 .5 72.089 469.146)"/><path d="m328.504 157.143h32.686v30h-32.686z" transform="matrix(.866 -.5 .5 .866 -39.87 195.488)"/><path d="m425.993 100.857h32.686v30h-32.686z" transform="matrix(.866 -.5 .5 .866 1.334 236.692)"/></g><circle cx="393.592" cy="144" fill="#bf0f7e" r="48.744"/></g></svg>