<svg id="Слой_1" enable-background="new 0 0 512 512" height="512" viewBox="0 0 512 512" width="512" xmlns="http://www.w3.org/2000/svg"><g><g fill="#f55555"><path d="m119.3 117.3 10.9-28.1c-23.5-25-44.2-59.1-58.3-85.2h-51.1c34.1 61.7 98.5 113.3 98.5 113.3z"/><path d="m440.1 4c-14.1 26.1-34.8 60.2-58.3 85.2l10.9 28.1s64.3-51.6 98.4-113.3h-51z"/></g><g><g><g><path d="m403.6 108c-3.7-9.5-8.6-18.6-14.4-27-27.6-40-76.8-66.8-133.2-67.5-56.4.7-105.6 27.5-133.1 67.5-5.8 8.5-10.7 17.5-14.4 27-5.7 14.6-8.8 30.2-8.8 46.5 0 44 22.6 83.2 58.1 109.1 2.6 1.9 5.2 3.7 7.9 5.4 11.9 8.8 33 27.2 34.6 48.1 1.5 20.5 2 54.5 18.9 73.5 0 0 .1.1.3.3 2.5 2.9 19.8 64.8 15.8 117 0 0 9.9 2.2 20.8 1.9 10.8.3 20.8-1.9 20.8-1.9-4.1-52.2 13.3-114.1 15.8-117 .2-.2.3-.3.3-.3 16.9-19 17.4-53 18.9-73.5 1.6-20.9 22.7-39.3 34.6-48.1 2.7-1.7 5.4-3.5 7.9-5.4 35.5-25.9 58.1-65.1 58.1-109.1-.1-16.3-3.2-31.9-8.9-46.5z" fill="#f55555"/><path d="m354.8 99c-8.8-13-20.2-22.4-31.9-29.4-20-11.9-42.7-17.2-65.4-16.2-22.6-1-45.3 4.4-65.4 16.2-11.7 7-23.1 16.5-31.9 29.4-30.9 45.3-21 106.4 20.9 140 37 29.6 41.9 36.5 44.9 54.2 2.5 14.6 12 35 30.9 35.8h.5.5c18.9-.8 28.5-21.2 30.9-35.8 3-17.7 7.9-24.6 44.9-54.2 42.1-33.6 52-94.7 21.1-140z" fill="#fff"/><path d="m334.1 112.7c-6.9-10.1-15.7-17.5-24.8-22.9-15.8-9.4-33.9-13.5-51.8-12.6-17.9-.9-36 3.2-51.8 12.6-9.1 5.4-18 12.8-24.8 22.9-24.1 35.3-13.3 86.1 16.3 108.9 21 16.2 37.7 34.5 42.3 43.3 3.7 7.1 10.9 50.2 18 50.2 7.2 0 14.3-43.1 18-50.2 4.6-8.7 21.3-27.1 42.3-43.3 29.6-22.8 40.4-73.6 16.3-108.9z" fill="#ffcb57"/></g><g><path d="m341.8 181.8c-.3 0-.6 0-1-.1-40.1-10.1-122.2-1.6-123-1.5-2.2.2-4.1-1.4-4.4-3.5-.2-2.2 1.4-4.1 3.5-4.4 3.4-.4 84.4-8.7 125.8 1.7 2.1.5 3.4 2.7 2.9 4.8-.4 1.8-2 3-3.8 3z"/><path d="m193.9 220.8c-1.8 0-3.4-1.2-3.9-3-.5-2.1.7-4.3 2.9-4.8 1.4-.4 34.5-8.7 80.2-8.4 2.2 0 4 1.8 4 4s-1.8 4-4 4c-44.7-.2-77.9 8.1-78.2 8.2-.3 0-.7 0-1 0z"/><path d="m233.5 256c-1.8 0-3.5-1.3-3.9-3.2-.4-2.2.9-4.3 3.1-4.7.8-.2 19.1-3.9 34.6-2.4 2.2.2 3.8 2.2 3.6 4.4s-2.2 3.8-4.4 3.6c-14.3-1.4-32 2.2-32.2 2.3-.3 0-.5 0-.8 0z"/><path d="m170.6 155.8c-1.8 0-3.4-1.2-3.9-3-.5-2.1.8-4.3 2.9-4.8.7-.2 68.8-16.6 133.9-5.8 2.2.4 3.6 2.4 3.3 4.6-.4 2.2-2.4 3.6-4.6 3.3-63.4-10.5-130 5.6-130.7 5.7-.2-.1-.5 0-.9 0z"/><path d="m330.8 118c-.5 0-1-.1-1.4-.3-21.1-8.1-80.4-7.5-81-7.5-2.2 0-4-1.8-4-3.9 0-2.2 1.7-4 3.9-4 2.5 0 61.4-.6 83.9 8.1 2.1.8 3.1 3.1 2.3 5.1-.5 1.5-2.1 2.5-3.7 2.5z"/><path d="m178.8 120c-1.7 0-3.3-1.1-3.8-2.9-.6-2.1.6-4.3 2.8-4.9 1.1-.3 27.5-7.6 47.4-6.8 2.2.1 3.9 1.9 3.8 4.1s-2 3.9-4.1 3.8c-18.6-.8-44.6 6.4-44.9 6.5-.5.1-.9.2-1.2.2z"/><path d="m108.4 112c-1 0-1.9-.3-2.6-1-22.2-19.6-63.2-59.4-88.4-105.1-1.1-1.9-.4-4.3 1.5-5.4s4.3-.4 5.4 1.6c23.8 43 63 81.5 82.6 99.3 3.1-6.9 6.7-13.7 11-20.1-20.5-24.5-38.1-54.4-49.5-75.4-1-1.9-.3-4.3 1.6-5.4 1.9-1 4.3-.3 5.4 1.6 11.5 21.4 29.6 52 50.5 76.3.6.7 1 1.6 1 2.6 0 .8-.2 1.6-.7 2.3-5.7 8.3-10.4 17.1-14 26.2-.5 1.2-1.5 2.1-2.8 2.4-.3.1-.6.1-1 .1z"/><path d="m403.6 112c-.3 0-.6 0-.9-.1-1.3-.3-2.3-1.2-2.8-2.4-3.6-9.1-8.3-18-14-26.2-.5-.7-.7-1.5-.7-2.3 0-.9.3-1.9 1-2.6 20.7-24.4 38.8-54.9 50.4-76.3 1-1.9 3.5-2.7 5.4-1.6 1.9 1 2.7 3.5 1.6 5.4-11.3 21-29 50.9-49.5 75.4 4.2 6.4 7.9 13.1 11 20.1 19.6-17.7 58.9-56.3 82.6-99.3 1.1-1.9 3.5-2.6 5.4-1.6 1.9 1.1 2.6 3.5 1.6 5.4-25.2 45.7-66.3 85.5-88.4 105.1-.8.6-1.8 1-2.7 1z"/><path d="m276.8 512c-2.1 0-3.8-1.6-4-3.7-4-51.5 13-115.5 16.7-119.9.2-.3.4-.4.4-.4 14.3-16 16.1-44 17.4-64.4.2-2.4.3-4.6.5-6.7 1.7-22.3 23.4-41.5 36.2-51l.2-.2c2.7-1.7 5.3-3.5 7.7-5.3 0 0 .1 0 .1-.1 35.8-26.2 56.4-64.7 56.4-105.8 0-15.5-2.9-30.6-8.6-45.1-3.6-9.2-8.3-18-14-26.2 0-.1-.1-.1-.1-.2-27.9-40.3-76.4-64.8-129.7-65.5-53.3.6-101.8 25.1-129.7 65.5 0 .1-.1.1-.1.2-5.7 8.3-10.4 17.1-14 26.2-5.7 14.4-8.6 29.6-8.6 45.1 0 41.1 20.5 79.7 56.4 105.8 0 0 .1 0 .1.1 2.4 1.8 5.1 3.6 7.7 5.3.1 0 .1.1.2.2 12.8 9.5 34.5 28.7 36.2 51 .2 2.1.3 4.3.5 6.7 1.3 20.4 3.2 48.4 17.5 64.5s.1.2.4.4c3.7 4.3 20.7 68.3 16.7 119.8-.2 2.2-2.1 3.8-4.3 3.7-2.2-.2-3.8-2.1-3.7-4.3 3.9-50.7-12.4-109.2-15-114.3-16.2-18.2-18.1-47.7-19.5-69.3-.2-2.3-.3-4.5-.5-6.6-1.4-19.1-21.1-36.4-32.9-45.1-2.8-1.8-5.5-3.6-8-5.5 0 0-.1 0-.1-.1-37.9-27.7-59.7-68.6-59.7-112.3 0-16.5 3.1-32.6 9.1-48 3.8-9.6 8.8-19 14.7-27.7 0-.1.1-.1.1-.2 29.5-42.5 80.4-68.4 136.5-69 56.1.7 107.1 26.5 136.5 69.1 0 .1.1.1.1.2 6 8.7 10.9 18 14.7 27.7 6 15.4 9.1 31.5 9.1 48 0 43.7-21.8 84.6-59.7 112.3s-.1 0-.1.1c-2.5 1.8-5.2 3.7-8 5.5-11.7 8.7-31.4 26-32.9 45.1-.2 2.1-.3 4.3-.5 6.6-1.4 21.6-3.4 51.1-19.5 69.2v.1c-2.6 5.1-19 63.6-15 114.3.2 2.2-1.5 4.1-3.7 4.3 0-.1-.1-.1-.2-.1zm-60.5-118.5s.1.1.1.1 0-.1-.1-.1zm79.4 0c-.1 0 0 0 0 0zm-37.7-60.5c-.2 0-.3 0-.5 0-.5 0-.9 0-1.3-.1-19.2-1.2-30.9-20.4-34.1-39.1-2.7-16.2-6.8-22.4-43.5-51.8-21.2-16.9-35.1-41.1-39.3-68.1-4.2-27.2 2-54.6 17.5-77.3 8.3-12.1 19.4-22.4 33.2-30.6 20.2-12 43.5-17.8 67.4-16.8 23.9-1 47.2 4.8 67.4 16.8 13.7 8.2 24.9 18.4 33.2 30.6 15.5 22.7 21.7 50.1 17.5 77.3-4.1 27-18.1 51.1-39.3 68.1-36.7 29.3-40.7 35.6-43.5 51.8-3.2 18.7-14.9 37.9-34.1 39.1-.1.1-.3.1-.6.1zm-.5-8s.1 0 0 0h.3c17.2-.7 25.2-20.8 27.2-32.5 3.3-19.5 9.8-27.4 46.3-56.7 40.6-32.5 49.5-91.6 20.1-134.6-7.6-11.2-17.9-20.7-30.7-28.2-18.9-11.2-40.7-16.6-63.1-15.7-.1 0-.2 0-.3 0-22.4-1-44.2 4.5-63.1 15.7-12.7 7.6-23 17.1-30.7 28.2-29.3 43-20.5 102.1 20.1 134.6 36.5 29.2 43 37.2 46.3 56.7 2 11.7 9.9 31.8 27.2 32.5h.4c-.1 0 0 0 0 0z"/><path d="m258 333c-.2 0-.3 0-.5 0-.5 0-.9 0-1.3-.1-19.2-1.2-30.9-20.4-34.1-39.1-2.7-16.2-6.8-22.4-43.5-51.8-21.2-16.9-35.1-41.1-39.3-68.1-4.2-27.2 2-54.6 17.5-77.3 8.3-12.1 19.4-22.4 33.2-30.6 20.2-12 43.5-17.8 67.4-16.8 23.9-1 47.2 4.8 67.4 16.8 13.7 8.2 24.9 18.4 33.2 30.6 15.5 22.7 21.7 50.1 17.5 77.3-4.1 27-18.1 51.1-39.3 68.1-36.7 29.3-40.7 35.6-43.5 51.8-3.2 18.7-14.9 37.9-34.1 39.1-.1.1-.3.1-.6.1zm-.5-8s.1 0 0 0h.3c17.2-.7 25.2-20.8 27.2-32.5 3.3-19.5 9.8-27.4 46.3-56.7 40.6-32.5 49.5-91.6 20.1-134.6-7.6-11.2-17.9-20.7-30.7-28.2-18.9-11.2-40.7-16.6-63.1-15.7-.1 0-.2 0-.3 0-22.4-1-44.2 4.5-63.1 15.7-12.7 7.6-23 17.1-30.7 28.2-29.3 43-20.5 102.1 20.1 134.6 36.5 29.2 43 37.2 46.3 56.7 2 11.7 9.9 31.8 27.2 32.5h.4c-.1 0 0 0 0 0z"/><path d="m258 333c-.2 0-.3 0-.5 0-.5 0-.9 0-1.3-.1-19.2-1.2-30.9-20.4-34.1-39.1-2.7-16.2-6.8-22.4-43.5-51.8-21.2-16.9-35.1-41.1-39.3-68.1-4.2-27.2 2-54.6 17.5-77.3 8.3-12.1 19.4-22.4 33.2-30.6 20.2-12 43.5-17.8 67.4-16.8 23.9-1 47.2 4.8 67.4 16.8 13.7 8.2 24.9 18.4 33.2 30.6 15.5 22.7 21.7 50.1 17.5 77.3-4.1 27-18.1 51.1-39.3 68.1-36.7 29.3-40.7 35.6-43.5 51.8-3.2 18.7-14.9 37.9-34.1 39.1-.1.1-.3.1-.6.1zm-.5-8s.1 0 0 0h.3c17.2-.7 25.2-20.8 27.2-32.5 3.3-19.5 9.8-27.4 46.3-56.7 40.6-32.5 49.5-91.6 20.1-134.6-7.6-11.2-17.9-20.7-30.7-28.2-18.9-11.2-40.7-16.6-63.1-15.7-.1 0-.2 0-.3 0-22.4-1-44.2 4.5-63.1 15.7-12.7 7.6-23 17.1-30.7 28.2-29.3 43-20.5 102.1 20.1 134.6 36.5 29.2 43 37.2 46.3 56.7 2 11.7 9.9 31.8 27.2 32.5h.4c-.1 0 0 0 0 0z"/></g></g><path d="m351.4 364.9c.4-12.7-4-24.2-11.4-32.2-1.4-16.4-9.3-30.3-20.3-37-6.3-11.2-16.3-18.5-27.8-18.9-48.1-1.5-39.6 61.5-41.1 62.4-.7-24.6-15.7-44.4-34.7-44.9-17.5-.5-32.6 15.4-36.6 37-5.1 7.9-8.3 18-8.6 29.1-.6 18.5 6.9 34.7 18.4 42.9-.1.8-.1 1.6-.1 2.4-.8 26.2 14.7 48 34.7 48.6 14.9.5 28.1-11 34.2-27.8-2 8.5-.8 16.7 4.1 22.6 10.4 12.3 33.3 10.1 51.1-5 14.7-12.4 21.4-29.6 17.5-42.2 11.8-6.8 20.1-20.7 20.6-37z" fill="#f08da2"/><path d="m281.3 460.9c-9.2 0-17-3.3-22.2-9.4-2.3-2.7-4-5.9-5-9.4-7.8 10.4-18.8 16.5-30.4 16.1-10.9-.3-21-6.2-28.3-16.4-7.1-9.9-10.7-22.8-10.3-36.4 0-.1 0-.2 0-.3-11.9-9.6-18.9-26.6-18.3-44.9.3-11.2 3.4-21.7 8.9-30.5 4.6-23.5 21.6-40.1 40.5-39.5 13.5.4 25.4 9.5 32.3 23.2 1.7-10.5 5.5-22.1 13.9-30.2 7.4-7.2 17.4-10.7 29.6-10.3s23.4 7.7 30.6 20c11.6 7.5 19.4 21.6 21.2 38.1 7.7 9 11.9 21.3 11.5 34-.5 16.1-8.1 30.6-20.1 38.6 2.7 14-4.9 31.1-19.5 43.4-9.2 7.8-20.1 12.6-30.5 13.7-1.3.1-2.6.2-3.9.2zm-23.3-38.5c.4 0 .8.1 1.1.2 2 .6 3.2 2.7 2.7 4.7-1.8 7.6-.7 14.4 3.3 19.1 4.2 4.9 11 7.2 19.3 6.4 8.9-.9 18.2-5.1 26.2-11.8 13.1-11 19.8-26.7 16.3-38-.6-1.8.2-3.7 1.8-4.6 11-6.3 18.2-19.1 18.6-33.6.3-11.2-3.4-21.9-10.3-29.4-.6-.6-1-1.5-1-2.3-1.3-14.8-8.3-27.8-18.4-33.9-.6-.4-1.1-.9-1.4-1.5-5.9-10.4-14.8-16.6-24.4-16.9-10-.3-18 2.4-23.8 8.1-13 12.6-12.9 37-12.9 46.2 0 4.4 0 6.3-2.2 7.5-1.2.7-2.7.7-3.9 0s-2-2-2-3.4c-.6-22.5-14.2-40.6-30.8-41.1-15.2-.5-28.9 13.7-32.6 33.7-.1.5-.3 1-.6 1.4-4.9 7.7-7.7 17.1-8 27.1-.5 16.6 5.9 31.8 16.7 39.6 1.1.8 1.7 2.1 1.6 3.5 0 .7-.1 1.5-.1 2.2-.4 11.8 2.8 23 8.8 31.5 5.8 8.1 13.6 12.8 22 13 12.8.4 24.6-9.5 30.3-25.2.6-1.5 2.1-2.5 3.7-2.5z"/><path d="m189.3 407.2c-.1 0-.2 0-.3 0-2.2-.2-3.8-2.1-3.7-4.3.6-8.1 7.1-24.7 27-30 2.1-.6 4.3.7 4.9 2.8s-.7 4.3-2.8 4.9c-19.5 5.2-21.1 22.7-21.1 22.9-.2 2.2-2 3.7-4 3.7z"/><path d="m330.8 405.8c-1.2 0-2.5-.6-3.2-1.7-10.4-14.4-22.8-10.5-23.3-10.3-2.1.7-4.3-.4-5-2.5s.4-4.3 2.4-5c.7-.3 18.4-6.3 32.4 13.2 1.3 1.8.9 4.3-.9 5.6-.8.4-1.6.7-2.4.7z"/><path d="m316.8 329.4c-.7 0-1.5-.2-2.2-.6-1.8-1.2-2.4-3.7-1.2-5.5 8.5-13 2.9-25.3 2.6-25.8-.9-2-.1-4.4 1.9-5.3s4.3-.1 5.3 1.8c.3.7 7.9 16.7-3.1 33.6-.7 1.1-2 1.8-3.3 1.8z"/><path d="m201.3 355.1c-.3 0-.7 0-1-.1-17.1-4.4-24.2-21.5-24.5-22.2-.8-2 .2-4.4 2.2-5.2s4.4.2 5.2 2.2c.1.2 6 14.1 19.1 17.5 2.1.5 3.4 2.7 2.9 4.8-.5 1.8-2.1 3-3.9 3z"/><path d="m258 430.4c-.1 0-.3 0-.4 0-2.2-.2-3.8-2.2-3.6-4.3 0-.4 2.7-30.6-8.9-46.9-.6-.9-.9-2-.7-3.1 0-.1 2.3-11.4 2.4-36.8 0-2.2 1.8-4 4-4 2.2 0 4 1.8 4 4-.1 21-1.6 32.6-2.2 36.7 12.3 18.9 9.5 49.5 9.4 50.9-.2 1.9-1.9 3.5-4 3.5z"/><path d="m263.1 384.1c-5.4 0-10.9-1.2-16.3-3.6-2-.9-2.9-3.2-2-5.3.9-2 3.2-2.9 5.3-2 27.5 12.2 45.5-17.6 46.2-18.8 1.1-1.9 3.6-2.5 5.4-1.4 1.9 1.1 2.5 3.5 1.4 5.4-.2.4-5.5 9.3-15 16.6-7.9 6-16.3 9.1-25 9.1z"/><path d="m242.8 279.7c-1.8 0-3.4-1.2-3.8-3-.6-2.3-2.1-8.2-3-10-4.4-8.4-21-26.4-41.2-42-15.3-11.8-26.1-30.8-29.7-52.3-3.8-22.5.7-44.5 12.6-62 6.5-9.6 15.3-17.7 26.1-24.1 16.2-9.6 34.8-14.1 53.8-13.2 19.1-1 37.7 3.6 53.8 13.2 10.8 6.4 19.6 14.5 26.1 24.1 11.9 17.5 16.4 39.5 12.6 62-3.6 21.4-14.5 40.5-29.7 52.3-10.9 8.4-21.5 18.1-29.9 27.3-1.5 1.6-4 1.7-5.6.3-1.6-1.5-1.7-4-.3-5.6 8.7-9.5 19.7-19.5 30.9-28.2 26.6-20.5 38.9-69.2 15.4-103.5-5.9-8.6-13.8-15.9-23.6-21.7-14.9-8.8-32-13-49.6-12-.1 0-.3 0-.4 0-17.6-.9-34.7 3.2-49.6 12-9.8 5.8-17.7 13.1-23.6 21.7-23.4 34.3-11.2 83 15.4 103.5 21.8 16.8 38.6 35.5 43.4 44.6 1 1.8 2 5.1 3.7 11.7.6 2.1-.7 4.3-2.9 4.9-.2 0-.5 0-.9 0z"/></g><g><path d="m145.1 381.9h-60c-2.2 0-4-1.8-4-4s1.8-4 4-4h60c2.2 0 4 1.8 4 4-.1 2.3-1.8 4-4 4z"/><path d="m85.1 429.1c-1.7 0-3.2-1.1-3.8-2.7-.7-2.1.4-4.3 2.5-5l60-19.8c2.1-.7 4.3.4 5 2.5s-.4 4.3-2.5 5l-60 19.8c-.4.1-.8.2-1.2.2z"/><path d="m145.1 354.9c-.4 0-.8-.1-1.2-.2l-60-19.8c-2.1-.7-3.2-2.9-2.5-5s2.9-3.2 5-2.5l60 19.8c2.1.7 3.2 2.9 2.5 5-.6 1.6-2.2 2.7-3.8 2.7z"/></g><g><path d="m434.8 382.3h-60c-2.2 0-4-1.8-4-4s1.8-4 4-4h60c2.2 0 4 1.8 4 4s-1.8 4-4 4z"/><path d="m374.8 354.9c-1.7 0-3.2-1.1-3.8-2.7-.7-2.1.4-4.3 2.5-5l60-19.8c2.1-.7 4.3.4 5 2.5s-.4 4.3-2.5 5l-60 19.8c-.3.1-.7.2-1.2.2z"/><path d="m434.8 429.1c-.4 0-.8-.1-1.2-.2l-60-19.8c-2.1-.7-3.2-2.9-2.5-5s2.9-3.2 5-2.5l60 19.8c2.1.7 3.2 2.9 2.5 5-.5 1.6-2.1 2.7-3.8 2.7z"/></g></g></svg>