<svg xmlns="http://www.w3.org/2000/svg" version="1.1" xmlns:xlink="http://www.w3.org/1999/xlink" width="512" height="512" x="0" y="0" viewBox="0 0 512 512" style="enable-background:new 0 0 512 512" xml:space="preserve" class=""><g><path d="M479.65 394.18c9.57 0 17.35-7.78 17.35-17.35v-33.02c0-9.57-7.78-17.35-17.35-17.35h-16.98v-.07c0-6.27-1.38-12.08-4.02-17.32V21c0-3.31-2.69-6-6-6H228.4c-3.31 0-6 2.69-6 6v166.86c0 3.31 2.69 6 6 6h184.35v87.28c-64.95-14.88-124.39-14.77-176.9.34-2.43-5.11-5.88-9.58-10.07-13.13-7.32-64.33-35.75-109.04-69.58-109.04H86.35C46.34 159.32 15 221.1 15 299.96c0 61.78 19.24 113.08 46.81 132.4-5.79 3.93-9.61 10.57-9.61 18.08V485H21c-3.31 0-6 2.69-6 6s2.69 6 6 6h470c3.31 0 6-2.69 6-6s-2.69-6-6-6h-32.34v-90.82zm5.35-50.37v33.02c0 2.95-2.4 5.35-5.35 5.35H164.97c-2.95 0-5.35-2.4-5.35-5.35v-33.02c0-2.95 2.4-5.35 5.35-5.35h314.68c2.95 0 5.35 2.4 5.35 5.35zm-308.52 91.16c12.71-7.23 24.15-21.23 33.01-40.8h120.24L269.36 485h-86.44v-34.56c0-6.04-2.46-11.51-6.44-15.47zm-74.6-84.1h13.02c8.58 26.22 23.71 43.31 41.3 43.31 1.64 0 3.28-.15 4.91-.45 1.24.28 2.53.45 3.86.45h31.24c-11.05 22-25.35 34.43-40.01 34.43-23.89-.01-45.02-32.48-54.32-77.74zm45.74-7.06v33.02c0 1.03.11 2.04.28 3.02-14.94-8.32-28.52-38.34-28.52-79.89 0-49.18 19.04-82.21 36.82-82.21 13.37 0 26.15 17.71 32.58 44.6-13.96 5.73-23.89 20.02-23.89 36.71 0 10.64 4.04 20.3 10.58 27.4h-10.5c-9.57 0-17.35 7.78-17.35 17.35zm196.52 50.37h59.54L343.31 485h-59.54zm68.61 8.03V485h-55.03zM234.4 27h212.26v154.86H234.4zm212.26 166.86v100.99c-5.85-4.52-13.2-8.14-21.91-10.72v-90.27zm-29 100.77c9.93 2.44 33.01 10.42 33.01 31.76v.07H229.22c6.54-7.1 10.58-16.76 10.58-27.4 0-2.07-.16-4.11-.45-6.1 52.51-15.06 112.47-14.51 178.31 1.67zm-189.86 4.43c0 15.11-11.42 27.4-25.46 27.4s-25.46-12.29-25.46-27.4 11.42-27.4 25.46-27.4 25.46 12.29 25.46 27.4zm-35.44-100.35c9.61 16.18 16.72 38.08 20.37 62.51-3.3-1-6.78-1.55-10.39-1.55-.63 0-1.25.02-1.87.05-7.87-32.97-24.92-53.96-44.28-53.96-27.37 0-48.82 41.38-48.82 94.21 0 13.95 1.5 27.11 4.2 38.91H99.74c-1.87-12.33-2.9-25.42-2.9-38.91 0-69.73 27.18-128.64 59.35-128.64 12.83-.01 25.68 9.71 36.17 27.38zM27 299.96c0-69.73 27.18-128.64 59.35-128.64h40.5c-24.98 21.66-42.01 70.51-42.01 128.64s17.03 106.98 42.01 128.64h-40.5C54.18 428.6 27 369.69 27 299.96zm37.2 150.48c0-5.42 4.41-9.84 9.84-9.84h87.05c5.42 0 9.84 4.41 9.84 9.84V485H64.2zM446.66 485h-21.91v-90.82h21.91zM429.18 38.48h-177.3c-3.31 0-6 2.69-6 6v119.9c0 3.31 2.69 6 6 6h177.3c3.31 0 6-2.69 6-6V44.48c0-3.31-2.69-6-6-6zm-6 119.9h-165.3V50.48h165.3zm-156.33-56.83c0-3.31 2.69-6 6-6h27.01l7.2-13.12a5.995 5.995 0 0 1 5.82-3.09c2.38.22 4.4 1.84 5.15 4.12l8.85 27.21 12.31-32.7c.79-2.11 2.71-3.6 4.95-3.85s4.44.78 5.68 2.66l12.37 18.78h46.02c3.31 0 6 2.69 6 6s-2.69 6-6 6h-49.25c-2.02 0-3.9-1.01-5.01-2.7l-7.67-11.64-14.19 37.7a6.002 6.002 0 0 1-5.61 3.89h-.14a6.005 6.005 0 0 1-5.57-4.14l-9.85-30.28-2.23 4.07a6.002 6.002 0 0 1-5.26 3.12h-30.56c-3.33-.03-6.02-2.72-6.02-6.03z" fill="#ffffff" opacity="1" data-original="#000000"></path></g></svg>