<svg xmlns="http://www.w3.org/2000/svg" version="1.1" xmlns:xlink="http://www.w3.org/1999/xlink" width="512" height="512" x="0" y="0" viewBox="0 0 512 512" style="enable-background:new 0 0 512 512" xml:space="preserve" class=""><g><path d="M151.559 149.747c6.889-4.589 15.218-5.396 22.855-2.209 5.128 2.14 10.051 4.997 14.634 8.494 12.922 9.861 12.025 24.607 6.425 61.169-4.809 31.39-10.793 70.455 3.709 112.233.424 1.223-.001 2.527-1.036 3.174-13.515 8.444-23.843 19.658-29.87 32.432a7.499 7.499 0 0 0 3.583 9.983 7.483 7.483 0 0 0 3.195.719 7.502 7.502 0 0 0 6.788-4.302c4.796-10.166 13.183-19.194 24.252-26.111 7.007-4.378 9.992-12.937 7.258-20.813-13.283-38.265-7.849-73.742-3.053-105.043 5.262-34.354 9.064-59.175-12.152-75.364-5.603-4.276-11.645-7.78-17.958-10.414a39.247 39.247 0 0 0-36.948 3.57 39.26 39.26 0 0 0-17.526 32.736v6.542c0 18.104 2.422 36.137 7.199 53.599 3.292 12.036.779 24.6-6.895 34.47-7.371 9.478-18.349 14.871-30.206 14.871-.236 0-.473-.002-.709-.007l-.838-.02c-10.516-.306-20.683-5.107-27.895-13.174-33.011-36.921-50.293-76.949-51.369-118.974.546-21.336 5.31-42.357 14.16-62.481a7.5 7.5 0 0 0-13.73-6.039C5.765 100.77.574 123.762.003 147.125a7.484 7.484 0 0 0 0 .367c1.119 45.752 19.687 89.083 55.186 128.788 9.944 11.122 24.028 17.745 38.644 18.17l.992.023c16.911.293 32.592-7.224 43.037-20.655 10.603-13.635 14.073-30.997 9.522-47.634a188.184 188.184 0 0 1-6.667-49.642V170c-.002-8.278 3.951-15.66 10.842-20.253zM210.961 440.304c-19.067-10.15-31.219-25.961-33.34-43.378a7.5 7.5 0 1 0-14.89 1.813c2.721 22.348 17.731 42.323 41.182 54.806 4.776 2.543 7.743 7.588 7.743 13.167v37.656c0 4.143 3.358 7.5 7.5 7.5s7.5-3.357 7.5-7.5v-37.656c-.001-11.137-6.015-21.256-15.695-26.408zM364.616 226.185c-4.551 16.637-1.08 33.999 9.523 47.635 10.24 13.169 25.518 20.664 42.054 20.663.329 0 .661-.003.992-.009l.983-.023c14.613-.425 28.697-7.048 38.642-18.17 35.5-39.705 54.067-83.036 55.187-128.788a7.484 7.484 0 0 0 0-.367c-.761-31.098-9.662-61.32-26.459-89.827a7.501 7.501 0 0 0-12.924 7.616c15.452 26.224 23.655 53.944 24.383 82.396-1.075 42.024-18.357 82.053-51.368 118.974-7.213 8.066-17.38 12.868-27.894 13.174l-.831.02c-12.154.264-23.406-5.197-30.924-14.864-7.675-9.87-10.188-22.434-6.896-34.47a203.177 203.177 0 0 0 7.199-53.599v-6.542a39.258 39.258 0 0 0-17.526-32.736 39.242 39.242 0 0 0-36.948-3.57c-6.312 2.634-12.354 6.138-17.958 10.414-21.217 16.189-17.414 41.011-12.151 75.364 4.795 31.301 10.229 66.778-3.054 105.044-2.734 7.876.251 16.435 7.259 20.812 7.049 4.405 13.138 9.794 17.814 15.744-16.583 14.89-27.029 36.483-27.029 60.472a81.19 81.19 0 0 0 2.454 19.859c-8.565 5.411-13.801 14.917-13.801 25.307v37.656c0 4.143 3.357 7.5 7.5 7.5s7.5-3.357 7.5-7.5v-37.656c0-3.997 1.523-7.72 4.143-10.445 13.044 27.493 41.076 46.55 73.475 46.55 13.758 0 27.367-3.515 39.358-10.165a7.5 7.5 0 0 0 2.921-10.196c-2.008-3.622-6.575-4.934-10.196-2.921-9.771 5.418-20.864 8.282-32.083 8.282-36.542 0-66.271-29.729-66.271-66.271s29.729-66.271 66.271-66.271 66.271 29.729 66.271 66.271c0 14.729-4.742 28.681-13.715 40.348a7.501 7.501 0 0 0 11.891 9.145c11.007-14.313 16.824-31.427 16.824-49.492 0-44.813-36.458-81.271-81.271-81.271-15.443 0-29.893 4.33-42.202 11.838-5.792-7.48-13.142-14.027-21.908-19.503-1.034-.646-1.46-1.951-1.036-3.173 14.504-41.779 8.52-80.845 3.71-112.234-5.601-36.562-6.498-51.308 6.425-61.169 4.583-3.497 9.507-6.355 14.634-8.494 7.638-3.186 15.968-2.38 22.855 2.209 6.892 4.593 10.844 11.975 10.844 20.254v6.542a188.103 188.103 0 0 1-6.667 49.637z" fill="#3c426d" opacity="1" data-original="#000000" class=""></path><path d="M32.43 61.694a7.5 7.5 0 0 0 10.348-2.328c6.67-10.542 14.608-20.982 23.592-31.031 7.213-8.066 17.38-12.868 27.894-13.174l.831-.02c.237-.005.473-.007.709-.007 11.865 0 22.844 5.394 30.214 14.872 7.674 9.869 10.188 22.433 6.894 34.474l-.108.396c-2.902 10.697-1.102 22.192 4.94 31.539 6.005 9.288 15.672 15.608 26.522 17.338 15.796 2.52 30.257 8.721 42.981 18.431 28.291 21.59 23.233 54.605 17.878 89.561-3.924 25.619-8.373 54.655-1.328 84.89 3.442 14.772 16.583 25.076 31.958 25.076h.474c15.386-.001 28.529-10.305 31.971-25.076 7.044-30.234 2.596-59.271-1.329-84.89-5.354-34.955-10.412-67.971 17.879-89.561 12.725-9.71 27.186-15.911 42.98-18.431 10.851-1.729 20.519-8.05 26.522-17.339 6.042-9.347 7.843-20.842 4.938-31.548l-.106-.392c-3.292-12.036-.779-24.6 6.896-34.469 7.517-9.667 18.805-15.106 30.914-14.865l.839.02c10.515.306 20.683 5.107 27.895 13.174a255.215 255.215 0 0 1 10.595 12.64 7.5 7.5 0 0 0 11.806-9.254 271.483 271.483 0 0 0-11.219-13.384C446.865 7.214 432.781.591 418.166.166l-.991-.023c-16.905-.337-32.592 7.223-43.036 20.655-10.604 13.635-14.074 30.997-9.524 47.629l.103.377c1.789 6.595.674 13.69-3.061 19.468-3.752 5.804-9.536 9.593-16.288 10.669-18.272 2.914-35 10.087-49.718 21.319-35.365 26.988-29.118 67.772-23.605 103.756 3.9 25.465 7.935 51.797 1.546 79.214-1.85 7.941-8.986 13.48-17.375 13.48h-.448c-8.375 0-15.512-5.539-17.362-13.48-6.388-27.417-2.354-53.749 1.546-79.214 5.512-35.983 11.76-76.768-23.605-103.756-14.717-11.232-31.445-18.405-49.719-21.319-6.751-1.076-12.535-4.865-16.287-10.669-3.734-5.777-4.85-12.873-3.063-19.458l.104-.382c4.551-16.637 1.08-33.998-9.522-47.634C127.415 7.366 111.7-.15 94.814.143l-.984.023c-14.613.425-28.697 7.048-38.642 18.17-9.534 10.663-17.974 21.77-25.086 33.01a7.5 7.5 0 0 0 2.328 10.348z" fill="#3c426d" opacity="1" data-original="#000000" class=""></path><path d="M132.735 99.369c-.771-4.07-4.664-6.752-8.734-5.979-1.565.265-6.274.495-9.225-1.647-1.728-1.255-2.781-3.329-3.221-6.342-1.342-9.207-5.986-14.02-9.645-16.435-8.82-5.82-19.559-3.209-20.754-2.892-4.003 1.062-6.418 5.176-5.356 9.18 1.062 4.003 5.139 6.4 9.142 5.334 1.398-.347 6.007-.918 8.744.923.588.396 2.376 1.599 3.026 6.054 1.307 8.965 5.834 13.88 9.402 16.425 5.282 3.767 11.333 4.568 15.528 4.568 2.692 0 4.62-.33 5.088-.419 4.07-.771 6.775-4.699 6.005-8.77zM81.156 170.466c.584.155 3.443.857 7.245.857 3.982 0 8.997-.771 13.509-3.749 3.659-2.415 8.303-7.228 9.645-16.435.439-3.013 1.493-5.087 3.221-6.342 2.951-2.144 7.659-1.914 9.164-1.657a7.5 7.5 0 0 0 2.79-14.739c-1.195-.227-11.944-2.035-20.616 4.148-3.568 2.545-8.095 7.459-9.402 16.425-.649 4.455-2.438 5.658-3.026 6.054-2.73 1.836-7.326 1.271-8.735.925a7.494 7.494 0 0 0-9.122 5.34 7.501 7.501 0 0 0 5.327 9.173zM99.343 128.217a7.501 7.501 0 0 0 4.967-14.155c-17.567-6.162-36.492 2.128-37.29 2.485-3.773 1.686-5.461 6.102-3.787 9.88a7.503 7.503 0 0 0 9.884 3.825c.142-.061 14.364-6.202 26.226-2.035zM385.27 108.139c.468.089 2.395.419 5.088.419 4.194 0 10.246-.802 15.527-4.568 3.567-2.545 8.096-7.46 9.402-16.425.649-4.456 2.438-5.658 3.025-6.054 2.731-1.836 7.325-1.271 8.734-.925a7.5 7.5 0 0 0 3.795-14.512c-1.196-.317-11.936-2.929-20.753 2.892-3.66 2.415-8.304 7.228-9.646 16.435-.438 3.013-1.492 5.087-3.221 6.342-2.949 2.142-7.657 1.914-9.164 1.658a7.5 7.5 0 1 0-2.787 14.738zM379.265 137.172c.771 4.069 4.659 6.745 8.734 5.979 1.566-.267 6.273-.496 9.225 1.646 1.728 1.255 2.781 3.329 3.22 6.342 1.342 9.207 5.985 14.02 9.646 16.435 4.513 2.979 9.526 3.749 13.509 3.749 3.8 0 6.66-.702 7.244-.857 4.004-1.062 6.418-5.176 5.356-9.18s-5.146-6.396-9.143-5.334c-1.399.346-6.008.918-8.743-.923-.588-.396-2.376-1.598-3.025-6.054-1.307-8.966-5.835-13.88-9.402-16.425-8.672-6.183-19.417-4.375-20.616-4.148-4.071.771-6.776 4.701-6.005 8.77zM445.703 124.594a7.5 7.5 0 0 0-3.586-9.982c-.678-.319-16.776-7.743-34.428-1.549a7.502 7.502 0 0 0 4.967 14.155c11.635-4.081 22.83.857 23.1.979a7.5 7.5 0 0 0 9.947-3.603zM291.057 376.741a7.5 7.5 0 0 0-3.112-10.14c-21.198-11.242-42.694-11.242-63.891 0a7.501 7.501 0 0 0 7.028 13.252c16.768-8.893 33.069-8.892 49.835 0a7.5 7.5 0 0 0 10.14-3.112zM417.034 397.509h-15.036v-15.036c0-6.508-5.295-11.803-11.803-11.803h-24.467c-6.508 0-11.803 5.295-11.803 11.803v15.036H338.89c-6.508 0-11.803 5.295-11.803 11.803v24.467c0 6.509 5.295 11.804 11.803 11.804h15.036v15.035c0 6.509 5.295 11.804 11.803 11.804h24.467c6.508 0 11.803-5.295 11.803-11.804v-15.035h15.036c6.508 0 11.803-5.295 11.803-11.804v-24.467c-.001-6.508-5.296-11.803-11.804-11.803zm-3.197 33.073h-15.035c-6.509 0-11.804 5.295-11.804 11.803v15.036h-18.072v-15.036c0-6.508-5.295-11.803-11.804-11.803h-15.035v-18.073h15.035c6.509 0 11.804-5.295 11.804-11.804V385.67h18.072v15.035c0 6.509 5.295 11.804 11.804 11.804h15.035z" fill="#3c426d" opacity="1" data-original="#000000" class=""></path></g></svg>